<mxfile host="www.draw.io" modified="2019-12-03T02:40:37.820Z" agent="Mozilla/5.0 (Windows NT 10.0; Win64; x64) AppleWebKit/537.36 (KHTML, like Gecko) Chrome/78.0.3904.108 Safari/537.36" etag="iHzlCtNdWKHNu60E0Flo" version="12.3.5" type="github" pages="1">
  <diagram id="QFaych85ZG0VaQsIKV3E" name="Page-1">
    <mxGraphModel dx="1656" dy="929" grid="1" gridSize="10" guides="1" tooltips="1" connect="1" arrows="1" fold="1" page="1" pageScale="1" pageWidth="850" pageHeight="1100" math="0" shadow="0">
      <root>
        <mxCell id="0"/>
        <mxCell id="1" parent="0"/>
        <mxCell id="j8hB8es19KLFHc6PdqS8-4" value="Controller (.NET Web API))" style="text;html=1;strokeColor=none;fillColor=none;align=center;verticalAlign=middle;whiteSpace=wrap;rounded=0;fontSize=22;fontStyle=1" parent="1" vertex="1">
          <mxGeometry x="270" y="30" width="305" height="20" as="geometry"/>
        </mxCell>
        <mxCell id="j8hB8es19KLFHc6PdqS8-5" value="Business" style="text;html=1;strokeColor=none;fillColor=none;align=center;verticalAlign=middle;whiteSpace=wrap;rounded=0;fontSize=22;fontStyle=1" parent="1" vertex="1">
          <mxGeometry x="665" y="940" width="305" height="20" as="geometry"/>
        </mxCell>
        <mxCell id="j8hB8es19KLFHc6PdqS8-6" value="Repository" style="text;html=1;strokeColor=none;fillColor=none;align=center;verticalAlign=middle;whiteSpace=wrap;rounded=0;fontSize=22;fontStyle=1" parent="1" vertex="1">
          <mxGeometry x="575" y="1335" width="305" height="20" as="geometry"/>
        </mxCell>
        <mxCell id="j8hB8es19KLFHc6PdqS8-7" value="" style="shape=component;align=left;spacingLeft=36;fontSize=22;" parent="1" vertex="1">
          <mxGeometry x="20" y="60" width="1750" height="840" as="geometry"/>
        </mxCell>
        <mxCell id="j8hB8es19KLFHc6PdqS8-8" value="" style="shape=component;align=left;spacingLeft=36;fontSize=22;" parent="1" vertex="1">
          <mxGeometry x="515" y="980" width="600" height="310" as="geometry"/>
        </mxCell>
        <mxCell id="j8hB8es19KLFHc6PdqS8-9" value="" style="shape=component;align=left;spacingLeft=36;fontSize=22;" parent="1" vertex="1">
          <mxGeometry x="355" y="1370" width="760" height="210" as="geometry"/>
        </mxCell>
        <mxCell id="j8hB8es19KLFHc6PdqS8-11" value="MedicsController" style="swimlane;fontStyle=1;align=center;verticalAlign=top;childLayout=stackLayout;horizontal=1;startSize=26;horizontalStack=0;resizeParent=1;resizeParentMax=0;resizeLast=0;collapsible=1;marginBottom=0;fontSize=12;" parent="1" vertex="1">
          <mxGeometry x="60" y="70" width="550" height="190" as="geometry"/>
        </mxCell>
        <mxCell id="j8hB8es19KLFHc6PdqS8-12" value="+ MedicsService: IMedicsService" style="text;strokeColor=none;fillColor=none;align=left;verticalAlign=top;spacingLeft=4;spacingRight=4;overflow=hidden;rotatable=0;points=[[0,0.5],[1,0.5]];portConstraint=eastwest;" parent="j8hB8es19KLFHc6PdqS8-11" vertex="1">
          <mxGeometry y="26" width="550" height="26" as="geometry"/>
        </mxCell>
        <mxCell id="j8hB8es19KLFHc6PdqS8-13" value="" style="line;strokeWidth=1;fillColor=none;align=left;verticalAlign=middle;spacingTop=-1;spacingLeft=3;spacingRight=3;rotatable=0;labelPosition=right;points=[];portConstraint=eastwest;" parent="j8hB8es19KLFHc6PdqS8-11" vertex="1">
          <mxGeometry y="52" width="550" height="8" as="geometry"/>
        </mxCell>
        <mxCell id="j8hB8es19KLFHc6PdqS8-14" value="getMedics([FromQuery] MedicFilterModel medicFilter): Ok&lt;IEnumerable&lt;MedicModel&gt;&gt;" style="text;strokeColor=none;fillColor=none;align=left;verticalAlign=top;spacingLeft=4;spacingRight=4;overflow=hidden;rotatable=0;points=[[0,0.5],[1,0.5]];portConstraint=eastwest;" parent="j8hB8es19KLFHc6PdqS8-11" vertex="1">
          <mxGeometry y="60" width="550" height="26" as="geometry"/>
        </mxCell>
        <mxCell id="j8hB8es19KLFHc6PdqS8-15" value="getMedic([FromRoute] int medicId): Ok&lt;MedicModel&gt;" style="text;strokeColor=none;fillColor=none;align=left;verticalAlign=top;spacingLeft=4;spacingRight=4;overflow=hidden;rotatable=0;points=[[0,0.5],[1,0.5]];portConstraint=eastwest;" parent="j8hB8es19KLFHc6PdqS8-11" vertex="1">
          <mxGeometry y="86" width="550" height="26" as="geometry"/>
        </mxCell>
        <mxCell id="j8hB8es19KLFHc6PdqS8-16" value="addMedic([FromBody] MedicModel newMedic): CreatedAt" style="text;strokeColor=none;fillColor=none;align=left;verticalAlign=top;spacingLeft=4;spacingRight=4;overflow=hidden;rotatable=0;points=[[0,0.5],[1,0.5]];portConstraint=eastwest;" parent="j8hB8es19KLFHc6PdqS8-11" vertex="1">
          <mxGeometry y="112" width="550" height="26" as="geometry"/>
        </mxCell>
        <mxCell id="j8hB8es19KLFHc6PdqS8-17" value="deleteMedic([FromRoute] int medicId): IAction" style="text;strokeColor=none;fillColor=none;align=left;verticalAlign=top;spacingLeft=4;spacingRight=4;overflow=hidden;rotatable=0;points=[[0,0.5],[1,0.5]];portConstraint=eastwest;" parent="j8hB8es19KLFHc6PdqS8-11" vertex="1">
          <mxGeometry y="138" width="550" height="26" as="geometry"/>
        </mxCell>
        <mxCell id="j8hB8es19KLFHc6PdqS8-18" value="updateMedic([FromBody] MedicModel medicData)): IAction" style="text;strokeColor=none;fillColor=none;align=left;verticalAlign=top;spacingLeft=4;spacingRight=4;overflow=hidden;rotatable=0;points=[[0,0.5],[1,0.5]];portConstraint=eastwest;" parent="j8hB8es19KLFHc6PdqS8-11" vertex="1">
          <mxGeometry y="164" width="550" height="26" as="geometry"/>
        </mxCell>
        <mxCell id="j8hB8es19KLFHc6PdqS8-19" value="PacientsController" style="swimlane;fontStyle=1;align=center;verticalAlign=top;childLayout=stackLayout;horizontal=1;startSize=26;horizontalStack=0;resizeParent=1;resizeParentMax=0;resizeLast=0;collapsible=1;marginBottom=0;fontSize=12;" parent="1" vertex="1">
          <mxGeometry x="817.5" y="78" width="430" height="190" as="geometry"/>
        </mxCell>
        <mxCell id="j8hB8es19KLFHc6PdqS8-20" value="+ PatientsService: IMedicsService" style="text;strokeColor=none;fillColor=none;align=left;verticalAlign=top;spacingLeft=4;spacingRight=4;overflow=hidden;rotatable=0;points=[[0,0.5],[1,0.5]];portConstraint=eastwest;" parent="j8hB8es19KLFHc6PdqS8-19" vertex="1">
          <mxGeometry y="26" width="430" height="26" as="geometry"/>
        </mxCell>
        <mxCell id="j8hB8es19KLFHc6PdqS8-21" value="" style="line;strokeWidth=1;fillColor=none;align=left;verticalAlign=middle;spacingTop=-1;spacingLeft=3;spacingRight=3;rotatable=0;labelPosition=right;points=[];portConstraint=eastwest;" parent="j8hB8es19KLFHc6PdqS8-19" vertex="1">
          <mxGeometry y="52" width="430" height="8" as="geometry"/>
        </mxCell>
        <mxCell id="j8hB8es19KLFHc6PdqS8-22" value="getPatients(): Ok&lt;IEnumerable&lt;PatientModel&gt;&gt;" style="text;strokeColor=none;fillColor=none;align=left;verticalAlign=top;spacingLeft=4;spacingRight=4;overflow=hidden;rotatable=0;points=[[0,0.5],[1,0.5]];portConstraint=eastwest;" parent="j8hB8es19KLFHc6PdqS8-19" vertex="1">
          <mxGeometry y="60" width="430" height="26" as="geometry"/>
        </mxCell>
        <mxCell id="j8hB8es19KLFHc6PdqS8-23" value="getPatient([FromRoute] int patientId): Ok&lt;PatientModel&gt;" style="text;strokeColor=none;fillColor=none;align=left;verticalAlign=top;spacingLeft=4;spacingRight=4;overflow=hidden;rotatable=0;points=[[0,0.5],[1,0.5]];portConstraint=eastwest;" parent="j8hB8es19KLFHc6PdqS8-19" vertex="1">
          <mxGeometry y="86" width="430" height="26" as="geometry"/>
        </mxCell>
        <mxCell id="j8hB8es19KLFHc6PdqS8-24" value="addPatient([FromBody] PatientModel newMedic): CreatedAt" style="text;strokeColor=none;fillColor=none;align=left;verticalAlign=top;spacingLeft=4;spacingRight=4;overflow=hidden;rotatable=0;points=[[0,0.5],[1,0.5]];portConstraint=eastwest;" parent="j8hB8es19KLFHc6PdqS8-19" vertex="1">
          <mxGeometry y="112" width="430" height="26" as="geometry"/>
        </mxCell>
        <mxCell id="j8hB8es19KLFHc6PdqS8-25" value="deletePatient([FromRoute] int patientId): IAction" style="text;strokeColor=none;fillColor=none;align=left;verticalAlign=top;spacingLeft=4;spacingRight=4;overflow=hidden;rotatable=0;points=[[0,0.5],[1,0.5]];portConstraint=eastwest;" parent="j8hB8es19KLFHc6PdqS8-19" vertex="1">
          <mxGeometry y="138" width="430" height="26" as="geometry"/>
        </mxCell>
        <mxCell id="j8hB8es19KLFHc6PdqS8-26" value="updatePatient([FromBody] PatientModel patientData)): IAction" style="text;strokeColor=none;fillColor=none;align=left;verticalAlign=top;spacingLeft=4;spacingRight=4;overflow=hidden;rotatable=0;points=[[0,0.5],[1,0.5]];portConstraint=eastwest;" parent="j8hB8es19KLFHc6PdqS8-19" vertex="1">
          <mxGeometry y="164" width="430" height="26" as="geometry"/>
        </mxCell>
        <mxCell id="j8hB8es19KLFHc6PdqS8-28" value="MedicModel" style="swimlane;fontStyle=1;align=center;verticalAlign=top;childLayout=stackLayout;horizontal=1;startSize=26;horizontalStack=0;resizeParent=1;resizeParentMax=0;resizeLast=0;collapsible=1;marginBottom=0;fontSize=12;" parent="1" vertex="1">
          <mxGeometry x="1300" y="130" width="160" height="190" as="geometry"/>
        </mxCell>
        <mxCell id="j8hB8es19KLFHc6PdqS8-29" value="Id: int" style="text;strokeColor=none;fillColor=none;align=left;verticalAlign=top;spacingLeft=4;spacingRight=4;overflow=hidden;rotatable=0;points=[[0,0.5],[1,0.5]];portConstraint=eastwest;" parent="j8hB8es19KLFHc6PdqS8-28" vertex="1">
          <mxGeometry y="26" width="160" height="26" as="geometry"/>
        </mxCell>
        <mxCell id="j8hB8es19KLFHc6PdqS8-36" value="Name: string" style="text;strokeColor=none;fillColor=none;align=left;verticalAlign=top;spacingLeft=4;spacingRight=4;overflow=hidden;rotatable=0;points=[[0,0.5],[1,0.5]];portConstraint=eastwest;" parent="j8hB8es19KLFHc6PdqS8-28" vertex="1">
          <mxGeometry y="52" width="160" height="26" as="geometry"/>
        </mxCell>
        <mxCell id="j8hB8es19KLFHc6PdqS8-37" value="CRM: string" style="text;strokeColor=none;fillColor=none;align=left;verticalAlign=top;spacingLeft=4;spacingRight=4;overflow=hidden;rotatable=0;points=[[0,0.5],[1,0.5]];portConstraint=eastwest;" parent="j8hB8es19KLFHc6PdqS8-28" vertex="1">
          <mxGeometry y="78" width="160" height="26" as="geometry"/>
        </mxCell>
        <mxCell id="j8hB8es19KLFHc6PdqS8-41" value="Specialism: int" style="text;strokeColor=none;fillColor=none;align=left;verticalAlign=top;spacingLeft=4;spacingRight=4;overflow=hidden;rotatable=0;points=[[0,0.5],[1,0.5]];portConstraint=eastwest;" parent="j8hB8es19KLFHc6PdqS8-28" vertex="1">
          <mxGeometry y="104" width="160" height="26" as="geometry"/>
        </mxCell>
        <mxCell id="j8hB8es19KLFHc6PdqS8-51" value="Hospital: HospitalModel" style="text;strokeColor=none;fillColor=none;align=left;verticalAlign=top;spacingLeft=4;spacingRight=4;overflow=hidden;rotatable=0;points=[[0,0.5],[1,0.5]];portConstraint=eastwest;" parent="j8hB8es19KLFHc6PdqS8-28" vertex="1">
          <mxGeometry y="130" width="160" height="26" as="geometry"/>
        </mxCell>
        <mxCell id="j8hB8es19KLFHc6PdqS8-30" value="" style="line;strokeWidth=1;fillColor=none;align=left;verticalAlign=middle;spacingTop=-1;spacingLeft=3;spacingRight=3;rotatable=0;labelPosition=right;points=[];portConstraint=eastwest;" parent="j8hB8es19KLFHc6PdqS8-28" vertex="1">
          <mxGeometry y="156" width="160" height="8" as="geometry"/>
        </mxCell>
        <mxCell id="j8hB8es19KLFHc6PdqS8-31" value="+ method(type): type" style="text;strokeColor=none;fillColor=none;align=left;verticalAlign=top;spacingLeft=4;spacingRight=4;overflow=hidden;rotatable=0;points=[[0,0.5],[1,0.5]];portConstraint=eastwest;" parent="j8hB8es19KLFHc6PdqS8-28" vertex="1">
          <mxGeometry y="164" width="160" height="26" as="geometry"/>
        </mxCell>
        <mxCell id="j8hB8es19KLFHc6PdqS8-32" value="PatientModel" style="swimlane;fontStyle=1;align=center;verticalAlign=top;childLayout=stackLayout;horizontal=1;startSize=26;horizontalStack=0;resizeParent=1;resizeParentMax=0;resizeLast=0;collapsible=1;marginBottom=0;fontSize=12;" parent="1" vertex="1">
          <mxGeometry x="1540" y="130" width="160" height="138" as="geometry"/>
        </mxCell>
        <mxCell id="j8hB8es19KLFHc6PdqS8-33" value="Id: int" style="text;strokeColor=none;fillColor=none;align=left;verticalAlign=top;spacingLeft=4;spacingRight=4;overflow=hidden;rotatable=0;points=[[0,0.5],[1,0.5]];portConstraint=eastwest;" parent="j8hB8es19KLFHc6PdqS8-32" vertex="1">
          <mxGeometry y="26" width="160" height="26" as="geometry"/>
        </mxCell>
        <mxCell id="j8hB8es19KLFHc6PdqS8-38" value="Name: string" style="text;strokeColor=none;fillColor=none;align=left;verticalAlign=top;spacingLeft=4;spacingRight=4;overflow=hidden;rotatable=0;points=[[0,0.5],[1,0.5]];portConstraint=eastwest;" parent="j8hB8es19KLFHc6PdqS8-32" vertex="1">
          <mxGeometry y="52" width="160" height="26" as="geometry"/>
        </mxCell>
        <mxCell id="j8hB8es19KLFHc6PdqS8-39" value="CPF: string" style="text;strokeColor=none;fillColor=none;align=left;verticalAlign=top;spacingLeft=4;spacingRight=4;overflow=hidden;rotatable=0;points=[[0,0.5],[1,0.5]];portConstraint=eastwest;" parent="j8hB8es19KLFHc6PdqS8-32" vertex="1">
          <mxGeometry y="78" width="160" height="26" as="geometry"/>
        </mxCell>
        <mxCell id="j8hB8es19KLFHc6PdqS8-34" value="" style="line;strokeWidth=1;fillColor=none;align=left;verticalAlign=middle;spacingTop=-1;spacingLeft=3;spacingRight=3;rotatable=0;labelPosition=right;points=[];portConstraint=eastwest;" parent="j8hB8es19KLFHc6PdqS8-32" vertex="1">
          <mxGeometry y="104" width="160" height="8" as="geometry"/>
        </mxCell>
        <mxCell id="j8hB8es19KLFHc6PdqS8-35" value="+ method(type): type" style="text;strokeColor=none;fillColor=none;align=left;verticalAlign=top;spacingLeft=4;spacingRight=4;overflow=hidden;rotatable=0;points=[[0,0.5],[1,0.5]];portConstraint=eastwest;" parent="j8hB8es19KLFHc6PdqS8-32" vertex="1">
          <mxGeometry y="112" width="160" height="26" as="geometry"/>
        </mxCell>
        <mxCell id="j8hB8es19KLFHc6PdqS8-42" value="AppointmentsController" style="swimlane;fontStyle=1;align=center;verticalAlign=top;childLayout=stackLayout;horizontal=1;startSize=26;horizontalStack=0;resizeParent=1;resizeParentMax=0;resizeLast=0;collapsible=1;marginBottom=0;fontSize=12;" parent="1" vertex="1">
          <mxGeometry x="60" y="320" width="570" height="138" as="geometry"/>
        </mxCell>
        <mxCell id="j8hB8es19KLFHc6PdqS8-43" value="+ AppointmentsService: IAppointmentsService" style="text;strokeColor=none;fillColor=none;align=left;verticalAlign=top;spacingLeft=4;spacingRight=4;overflow=hidden;rotatable=0;points=[[0,0.5],[1,0.5]];portConstraint=eastwest;" parent="j8hB8es19KLFHc6PdqS8-42" vertex="1">
          <mxGeometry y="26" width="570" height="26" as="geometry"/>
        </mxCell>
        <mxCell id="j8hB8es19KLFHc6PdqS8-44" value="" style="line;strokeWidth=1;fillColor=none;align=left;verticalAlign=middle;spacingTop=-1;spacingLeft=3;spacingRight=3;rotatable=0;labelPosition=right;points=[];portConstraint=eastwest;" parent="j8hB8es19KLFHc6PdqS8-42" vertex="1">
          <mxGeometry y="52" width="570" height="8" as="geometry"/>
        </mxCell>
        <mxCell id="j8hB8es19KLFHc6PdqS8-45" value="getAvaiableAppointments([FromQuery] appointmentsFilter): Ok&lt;IEnumerable&lt;AppoitmentModel&gt;&gt;" style="text;strokeColor=none;fillColor=none;align=left;verticalAlign=top;spacingLeft=4;spacingRight=4;overflow=hidden;rotatable=0;points=[[0,0.5],[1,0.5]];portConstraint=eastwest;" parent="j8hB8es19KLFHc6PdqS8-42" vertex="1">
          <mxGeometry y="60" width="570" height="26" as="geometry"/>
        </mxCell>
        <mxCell id="6EtjrWwbFe3XrMgIN223-1" value="setAppointment([FromBody] AppointmentModel newAppointment): CreatedAt" style="text;strokeColor=none;fillColor=none;align=left;verticalAlign=top;spacingLeft=4;spacingRight=4;overflow=hidden;rotatable=0;points=[[0,0.5],[1,0.5]];portConstraint=eastwest;" vertex="1" parent="j8hB8es19KLFHc6PdqS8-42">
          <mxGeometry y="86" width="570" height="26" as="geometry"/>
        </mxCell>
        <mxCell id="6EtjrWwbFe3XrMgIN223-12" value="updateAppointment([FromBody] AppointmentModel appointment): IAction" style="text;strokeColor=none;fillColor=none;align=left;verticalAlign=top;spacingLeft=4;spacingRight=4;overflow=hidden;rotatable=0;points=[[0,0.5],[1,0.5]];portConstraint=eastwest;" vertex="1" parent="j8hB8es19KLFHc6PdqS8-42">
          <mxGeometry y="112" width="570" height="26" as="geometry"/>
        </mxCell>
        <mxCell id="j8hB8es19KLFHc6PdqS8-52" value="MedicFilterModel" style="swimlane;fontStyle=1;align=center;verticalAlign=top;childLayout=stackLayout;horizontal=1;startSize=26;horizontalStack=0;resizeParent=1;resizeParentMax=0;resizeLast=0;collapsible=1;marginBottom=0;fontSize=12;" parent="1" vertex="1">
          <mxGeometry x="1300" y="330" width="200" height="190" as="geometry"/>
        </mxCell>
        <mxCell id="j8hB8es19KLFHc6PdqS8-54" value="Name: string" style="text;strokeColor=none;fillColor=none;align=left;verticalAlign=top;spacingLeft=4;spacingRight=4;overflow=hidden;rotatable=0;points=[[0,0.5],[1,0.5]];portConstraint=eastwest;" parent="j8hB8es19KLFHc6PdqS8-52" vertex="1">
          <mxGeometry y="26" width="200" height="26" as="geometry"/>
        </mxCell>
        <mxCell id="j8hB8es19KLFHc6PdqS8-56" value="Especialidade: int" style="text;strokeColor=none;fillColor=none;align=left;verticalAlign=top;spacingLeft=4;spacingRight=4;overflow=hidden;rotatable=0;points=[[0,0.5],[1,0.5]];portConstraint=eastwest;" parent="j8hB8es19KLFHc6PdqS8-52" vertex="1">
          <mxGeometry y="52" width="200" height="26" as="geometry"/>
        </mxCell>
        <mxCell id="j8hB8es19KLFHc6PdqS8-57" value="Hospital: HospitalModel" style="text;strokeColor=none;fillColor=none;align=left;verticalAlign=top;spacingLeft=4;spacingRight=4;overflow=hidden;rotatable=0;points=[[0,0.5],[1,0.5]];portConstraint=eastwest;" parent="j8hB8es19KLFHc6PdqS8-52" vertex="1">
          <mxGeometry y="78" width="200" height="26" as="geometry"/>
        </mxCell>
        <mxCell id="j8hB8es19KLFHc6PdqS8-60" value="DisponibilidadeInicio: DateTime" style="text;strokeColor=none;fillColor=none;align=left;verticalAlign=top;spacingLeft=4;spacingRight=4;overflow=hidden;rotatable=0;points=[[0,0.5],[1,0.5]];portConstraint=eastwest;" parent="j8hB8es19KLFHc6PdqS8-52" vertex="1">
          <mxGeometry y="104" width="200" height="26" as="geometry"/>
        </mxCell>
        <mxCell id="j8hB8es19KLFHc6PdqS8-61" value="DisponibilidadeFim: DateTime" style="text;strokeColor=none;fillColor=none;align=left;verticalAlign=top;spacingLeft=4;spacingRight=4;overflow=hidden;rotatable=0;points=[[0,0.5],[1,0.5]];portConstraint=eastwest;" parent="j8hB8es19KLFHc6PdqS8-52" vertex="1">
          <mxGeometry y="130" width="200" height="26" as="geometry"/>
        </mxCell>
        <mxCell id="j8hB8es19KLFHc6PdqS8-58" value="" style="line;strokeWidth=1;fillColor=none;align=left;verticalAlign=middle;spacingTop=-1;spacingLeft=3;spacingRight=3;rotatable=0;labelPosition=right;points=[];portConstraint=eastwest;" parent="j8hB8es19KLFHc6PdqS8-52" vertex="1">
          <mxGeometry y="156" width="200" height="8" as="geometry"/>
        </mxCell>
        <mxCell id="j8hB8es19KLFHc6PdqS8-59" value="+ method(type): type" style="text;strokeColor=none;fillColor=none;align=left;verticalAlign=top;spacingLeft=4;spacingRight=4;overflow=hidden;rotatable=0;points=[[0,0.5],[1,0.5]];portConstraint=eastwest;" parent="j8hB8es19KLFHc6PdqS8-52" vertex="1">
          <mxGeometry y="164" width="200" height="26" as="geometry"/>
        </mxCell>
        <mxCell id="j8hB8es19KLFHc6PdqS8-62" value="AppointmentModel" style="swimlane;fontStyle=1;align=center;verticalAlign=top;childLayout=stackLayout;horizontal=1;startSize=26;horizontalStack=0;resizeParent=1;resizeParentMax=0;resizeLast=0;collapsible=1;marginBottom=0;fontSize=12;" parent="1" vertex="1">
          <mxGeometry x="1538.5" y="330" width="160" height="164" as="geometry"/>
        </mxCell>
        <mxCell id="j8hB8es19KLFHc6PdqS8-64" value="Medic: MedicModel" style="text;strokeColor=none;fillColor=none;align=left;verticalAlign=top;spacingLeft=4;spacingRight=4;overflow=hidden;rotatable=0;points=[[0,0.5],[1,0.5]];portConstraint=eastwest;" parent="j8hB8es19KLFHc6PdqS8-62" vertex="1">
          <mxGeometry y="26" width="160" height="26" as="geometry"/>
        </mxCell>
        <mxCell id="6EtjrWwbFe3XrMgIN223-2" value="Patient: PatientModel" style="text;strokeColor=none;fillColor=none;align=left;verticalAlign=top;spacingLeft=4;spacingRight=4;overflow=hidden;rotatable=0;points=[[0,0.5],[1,0.5]];portConstraint=eastwest;" vertex="1" parent="j8hB8es19KLFHc6PdqS8-62">
          <mxGeometry y="52" width="160" height="26" as="geometry"/>
        </mxCell>
        <mxCell id="j8hB8es19KLFHc6PdqS8-65" value="Date: DateTime" style="text;strokeColor=none;fillColor=none;align=left;verticalAlign=top;spacingLeft=4;spacingRight=4;overflow=hidden;rotatable=0;points=[[0,0.5],[1,0.5]];portConstraint=eastwest;" parent="j8hB8es19KLFHc6PdqS8-62" vertex="1">
          <mxGeometry y="78" width="160" height="26" as="geometry"/>
        </mxCell>
        <mxCell id="6EtjrWwbFe3XrMgIN223-3" value="Local: Hospital" style="text;strokeColor=none;fillColor=none;align=left;verticalAlign=top;spacingLeft=4;spacingRight=4;overflow=hidden;rotatable=0;points=[[0,0.5],[1,0.5]];portConstraint=eastwest;" vertex="1" parent="j8hB8es19KLFHc6PdqS8-62">
          <mxGeometry y="104" width="160" height="26" as="geometry"/>
        </mxCell>
        <mxCell id="j8hB8es19KLFHc6PdqS8-66" value="" style="line;strokeWidth=1;fillColor=none;align=left;verticalAlign=middle;spacingTop=-1;spacingLeft=3;spacingRight=3;rotatable=0;labelPosition=right;points=[];portConstraint=eastwest;" parent="j8hB8es19KLFHc6PdqS8-62" vertex="1">
          <mxGeometry y="130" width="160" height="8" as="geometry"/>
        </mxCell>
        <mxCell id="j8hB8es19KLFHc6PdqS8-67" value="+ method(type): type" style="text;strokeColor=none;fillColor=none;align=left;verticalAlign=top;spacingLeft=4;spacingRight=4;overflow=hidden;rotatable=0;points=[[0,0.5],[1,0.5]];portConstraint=eastwest;" parent="j8hB8es19KLFHc6PdqS8-62" vertex="1">
          <mxGeometry y="138" width="160" height="26" as="geometry"/>
        </mxCell>
        <mxCell id="j8hB8es19KLFHc6PdqS8-69" value="Service" style="text;html=1;strokeColor=none;fillColor=none;align=center;verticalAlign=middle;whiteSpace=wrap;rounded=0;fontSize=22;fontStyle=1" parent="1" vertex="1">
          <mxGeometry x="1468.5" y="940" width="305" height="20" as="geometry"/>
        </mxCell>
        <mxCell id="j8hB8es19KLFHc6PdqS8-70" value="" style="shape=component;align=left;spacingLeft=36;fontSize=22;" parent="1" vertex="1">
          <mxGeometry x="1318.5" y="980" width="600" height="310" as="geometry"/>
        </mxCell>
        <mxCell id="6EtjrWwbFe3XrMgIN223-4" value="HospitalModel" style="swimlane;fontStyle=1;align=center;verticalAlign=top;childLayout=stackLayout;horizontal=1;startSize=26;horizontalStack=0;resizeParent=1;resizeParentMax=0;resizeLast=0;collapsible=1;marginBottom=0;fontSize=12;" vertex="1" parent="1">
          <mxGeometry x="1300" y="540" width="200" height="112" as="geometry"/>
        </mxCell>
        <mxCell id="6EtjrWwbFe3XrMgIN223-5" value="Name: string" style="text;strokeColor=none;fillColor=none;align=left;verticalAlign=top;spacingLeft=4;spacingRight=4;overflow=hidden;rotatable=0;points=[[0,0.5],[1,0.5]];portConstraint=eastwest;" vertex="1" parent="6EtjrWwbFe3XrMgIN223-4">
          <mxGeometry y="26" width="200" height="26" as="geometry"/>
        </mxCell>
        <mxCell id="6EtjrWwbFe3XrMgIN223-6" value="Address: string" style="text;strokeColor=none;fillColor=none;align=left;verticalAlign=top;spacingLeft=4;spacingRight=4;overflow=hidden;rotatable=0;points=[[0,0.5],[1,0.5]];portConstraint=eastwest;" vertex="1" parent="6EtjrWwbFe3XrMgIN223-4">
          <mxGeometry y="52" width="200" height="26" as="geometry"/>
        </mxCell>
        <mxCell id="6EtjrWwbFe3XrMgIN223-10" value="" style="line;strokeWidth=1;fillColor=none;align=left;verticalAlign=middle;spacingTop=-1;spacingLeft=3;spacingRight=3;rotatable=0;labelPosition=right;points=[];portConstraint=eastwest;" vertex="1" parent="6EtjrWwbFe3XrMgIN223-4">
          <mxGeometry y="78" width="200" height="8" as="geometry"/>
        </mxCell>
        <mxCell id="6EtjrWwbFe3XrMgIN223-11" value="+ method(type): type" style="text;strokeColor=none;fillColor=none;align=left;verticalAlign=top;spacingLeft=4;spacingRight=4;overflow=hidden;rotatable=0;points=[[0,0.5],[1,0.5]];portConstraint=eastwest;" vertex="1" parent="6EtjrWwbFe3XrMgIN223-4">
          <mxGeometry y="86" width="200" height="26" as="geometry"/>
        </mxCell>
        <mxCell id="6EtjrWwbFe3XrMgIN223-13" value="AppointmentStatusEnum" style="swimlane;fontStyle=0;childLayout=stackLayout;horizontal=1;startSize=26;fillColor=none;horizontalStack=0;resizeParent=1;resizeParentMax=0;resizeLast=0;collapsible=1;marginBottom=0;" vertex="1" parent="1">
          <mxGeometry x="1880" y="321" width="210" height="104" as="geometry"/>
        </mxCell>
        <mxCell id="6EtjrWwbFe3XrMgIN223-14" value="WatingForApproval" style="text;strokeColor=none;fillColor=none;align=left;verticalAlign=top;spacingLeft=4;spacingRight=4;overflow=hidden;rotatable=0;points=[[0,0.5],[1,0.5]];portConstraint=eastwest;" vertex="1" parent="6EtjrWwbFe3XrMgIN223-13">
          <mxGeometry y="26" width="210" height="26" as="geometry"/>
        </mxCell>
        <mxCell id="6EtjrWwbFe3XrMgIN223-15" value="Scheduled" style="text;strokeColor=none;fillColor=none;align=left;verticalAlign=top;spacingLeft=4;spacingRight=4;overflow=hidden;rotatable=0;points=[[0,0.5],[1,0.5]];portConstraint=eastwest;" vertex="1" parent="6EtjrWwbFe3XrMgIN223-13">
          <mxGeometry y="52" width="210" height="26" as="geometry"/>
        </mxCell>
        <mxCell id="6EtjrWwbFe3XrMgIN223-16" value="Canceled" style="text;strokeColor=none;fillColor=none;align=left;verticalAlign=top;spacingLeft=4;spacingRight=4;overflow=hidden;rotatable=0;points=[[0,0.5],[1,0.5]];portConstraint=eastwest;" vertex="1" parent="6EtjrWwbFe3XrMgIN223-13">
          <mxGeometry y="78" width="210" height="26" as="geometry"/>
        </mxCell>
        <mxCell id="6EtjrWwbFe3XrMgIN223-17" value="&lt;p style=&quot;margin: 0px ; margin-top: 4px ; text-align: center&quot;&gt;&lt;i&gt;&amp;lt;&amp;lt;Interface&amp;gt;&amp;gt;&lt;/i&gt;&lt;br&gt;&lt;b&gt;IMedicsService&lt;/b&gt;&lt;/p&gt;&lt;hr size=&quot;1&quot;&gt;&lt;p style=&quot;margin: 0px ; margin-left: 4px&quot;&gt;IMedicsBusiness medicBusiness&lt;/p&gt;&lt;hr size=&quot;1&quot;&gt;&lt;p style=&quot;margin: 0px ; margin-left: 4px&quot;&gt;getMedics(MedicFilterModel filter): IEnumerable&amp;lt;MedicModel&amp;gt;&lt;br&gt;getMedic(int medicId): MedicModel&lt;/p&gt;&lt;p style=&quot;margin: 0px ; margin-left: 4px&quot;&gt;addMedic(MedicModel newMedic): int&lt;/p&gt;&lt;p style=&quot;margin: 0px ; margin-left: 4px&quot;&gt;deleteMedic(int medicId): int&lt;/p&gt;&lt;p style=&quot;margin: 0px ; margin-left: 4px&quot;&gt;updateMedic(MedicModel medic): int&lt;/p&gt;" style="verticalAlign=top;align=left;overflow=fill;fontSize=12;fontFamily=Helvetica;html=1;" vertex="1" parent="1">
          <mxGeometry x="335" y="730" width="360" height="150" as="geometry"/>
        </mxCell>
        <mxCell id="6EtjrWwbFe3XrMgIN223-18" value="&lt;p style=&quot;margin: 0px ; margin-top: 4px ; text-align: center&quot;&gt;&lt;i&gt;&amp;lt;&amp;lt;Interface&amp;gt;&amp;gt;&lt;/i&gt;&lt;br&gt;&lt;b&gt;IPatientsService&lt;/b&gt;&lt;/p&gt;&lt;hr size=&quot;1&quot;&gt;&lt;p style=&quot;margin: 0px ; margin-left: 4px&quot;&gt;+ field1: Type&lt;br&gt;+ field2: Type&lt;/p&gt;&lt;hr size=&quot;1&quot;&gt;&lt;p style=&quot;margin: 0px ; margin-left: 4px&quot;&gt;+ method1(Type): Type&lt;br&gt;+ method2(Type, Type): Type&lt;/p&gt;" style="verticalAlign=top;align=left;overflow=fill;fontSize=12;fontFamily=Helvetica;html=1;" vertex="1" parent="1">
          <mxGeometry x="778.5" y="740" width="190" height="140" as="geometry"/>
        </mxCell>
        <mxCell id="6EtjrWwbFe3XrMgIN223-19" value="&lt;p style=&quot;margin: 0px ; margin-top: 4px ; text-align: center&quot;&gt;&lt;i&gt;&amp;lt;&amp;lt;Interface&amp;gt;&amp;gt;&lt;/i&gt;&lt;br&gt;&lt;b&gt;IAppointmentsService&lt;/b&gt;&lt;/p&gt;&lt;hr size=&quot;1&quot;&gt;&lt;p style=&quot;margin: 0px ; margin-left: 4px&quot;&gt;+ field1: Type&lt;br&gt;+ field2: Type&lt;/p&gt;&lt;hr size=&quot;1&quot;&gt;&lt;p style=&quot;margin: 0px ; margin-left: 4px&quot;&gt;+ method1(Type): Type&lt;br&gt;+ method2(Type, Type): Type&lt;/p&gt;" style="verticalAlign=top;align=left;overflow=fill;fontSize=12;fontFamily=Helvetica;html=1;" vertex="1" parent="1">
          <mxGeometry x="1128.5" y="740" width="190" height="140" as="geometry"/>
        </mxCell>
      </root>
    </mxGraphModel>
  </diagram>
</mxfile>
